<svg width="120" height="120" viewBox="0 0 120 120" fill="none" xmlns="http://www.w3.org/2000/svg">
<g clip-path="url(#clip0_51_523)">
<path d="M91.875 0H28.125C12.592 0 0 12.592 0 28.125V91.875C0 107.408 12.592 120 28.125 120H91.875C107.408 120 120 107.408 120 91.875V28.125C120 12.592 107.408 0 91.875 0Z" fill="#F4F2ED"/>
<mask id="mask0_51_523" style="mask-type:luminance" maskUnits="userSpaceOnUse" x="28" y="13" width="64" height="94">
<path d="M28.5938 13.125H91.1063V106.875H28.5938V13.125Z" fill="white"/>
</mask>
<g mask="url(#mask0_51_523)">
<path d="M44.2252 106.875C52.8502 106.875 59.85 99.8752 59.85 91.2502V75.6249H44.2252C35.6002 75.6249 28.5999 82.6252 28.5999 91.2502C28.5999 99.8752 35.6002 106.875 44.2252 106.875Z" fill="#0ACF83"/>
<path d="M28.5999 60C28.5999 51.375 35.6002 44.3751 44.2252 44.3751H59.85V75.6248H44.2252C35.6002 75.6248 28.5999 68.625 28.5999 60Z" fill="#A259FF"/>
<path d="M28.5999 28.7498C28.5999 20.1248 35.6002 13.125 44.2252 13.125H59.85V44.3752H44.2252C35.6002 44.3752 28.5999 37.3748 28.5999 28.7498Z" fill="#F24E1E"/>
<path d="M59.85 13.125H75.4748C84.0998 13.125 91.1001 20.1248 91.1001 28.7498C91.1001 37.3748 84.0998 44.3752 75.4748 44.3752H59.85V13.125Z" fill="#FF7262"/>
<path d="M91.1001 60C91.1001 68.625 84.0998 75.6248 75.4748 75.6248C66.8498 75.6248 59.85 68.625 59.85 60C59.85 51.375 66.8498 44.3751 75.4748 44.3751C84.0998 44.3751 91.1001 51.375 91.1001 60Z" fill="#1ABCFE"/>
</g>
<path d="M0 64C0 28.672 28.672 0 64 0H128V128H64C28.672 128 0 99.328 0 64Z" fill="#F24E1E"/>
</g>
<defs>
<clipPath id="clip0_51_523">
<rect width="120" height="120" fill="white"/>
</clipPath>
</defs>
</svg>
