<svg width="120" height="120" viewBox="0 0 120 120" fill="none" xmlns="http://www.w3.org/2000/svg">
<path d="M40 80C40 82.6522 38.9464 85.1957 37.0711 87.0711C35.1957 88.9464 32.6522 90 30 90C27.3478 90 24.8043 88.9464 22.9289 87.0711C21.0536 85.1957 20 82.6522 20 80C20 77.3478 21.0536 74.8043 22.9289 72.9289C24.8043 71.0536 27.3478 70 30 70C32.6522 70 35.1957 71.0536 37.0711 72.9289C38.9464 74.8043 40 77.3478 40 80Z" fill="#0338F5"/>
<path fill-rule="evenodd" clip-rule="evenodd" d="M60 55C58.685 55 57.5 55.99 57.5 57.305V102.5C57.5 103.163 57.7634 103.799 58.2322 104.268C58.7011 104.737 59.337 105 60 105C60.663 105 61.2989 104.737 61.7678 104.268C62.2366 103.799 62.5 103.163 62.5 102.5V57.305C62.5 55.99 61.315 55 60 55ZM57.5 37.5C57.5 38.88 58.685 40 60.065 40C61.4475 40 62.5 38.88 62.5 37.5V17.5C62.5 16.837 62.2366 16.2011 61.7678 15.7322C61.2989 15.2634 60.663 15 60 15C59.337 15 58.7011 15.2634 58.2322 15.7322C57.7634 16.2011 57.5 16.837 57.5 17.5V37.5ZM90 82.5C88.685 82.5 87.5 83.49 87.5 84.805V102.5C87.5 103.163 87.7634 103.799 88.2322 104.268C88.7011 104.737 89.337 105 90 105C90.663 105 91.2989 104.737 91.7678 104.268C92.2366 103.799 92.5 103.163 92.5 102.5V84.805C92.5 83.49 91.315 82.5 90 82.5ZM87.5 65C87.5 66.38 88.685 67.5 90.065 67.5C91.4475 67.5 92.5 66.38 92.5 65V17.5C92.5 16.837 92.2366 16.2011 91.7678 15.7322C91.2989 15.2634 90.663 15 90 15C89.337 15 88.7011 15.2634 88.2322 15.7322C87.7634 16.2011 87.5 16.837 87.5 17.5V65ZM30 95C28.685 95 27.5 95.99 27.5 97.305V102.5C27.5 103.163 27.7634 103.799 28.2322 104.268C28.7011 104.737 29.337 105 30 105C30.663 105 31.2989 104.737 31.7678 104.268C32.2366 103.799 32.5 103.163 32.5 102.5V97.305C32.5 95.99 31.315 95 30 95ZM27.5 77.5C27.5 78.88 28.685 80 30.065 80C31.4475 80 32.5 78.88 32.5 77.5V17.5C32.5 16.837 32.2366 16.2011 31.7678 15.7322C31.2989 15.2634 30.663 15 30 15C29.337 15 28.7011 15.2634 28.2322 15.7322C27.7634 16.2011 27.5 16.837 27.5 17.5V77.5Z" fill="#0338F5"/>
<path d="M70 40C70 42.6522 68.9464 45.1957 67.0711 47.0711C65.1957 48.9464 62.6522 50 60 50C57.3478 50 54.8043 48.9464 52.9289 47.0711C51.0536 45.1957 50 42.6522 50 40C50 37.3478 51.0536 34.8043 52.9289 32.9289C54.8043 31.0536 57.3478 30 60 30C62.6522 30 65.1957 31.0536 67.0711 32.9289C68.9464 34.8043 70 37.3478 70 40ZM100 67.5C100 70.1522 98.9464 72.6957 97.0711 74.5711C95.1957 76.4464 92.6522 77.5 90 77.5C87.3478 77.5 84.8043 76.4464 82.9289 74.5711C81.0536 72.6957 80 70.1522 80 67.5C80 64.8478 81.0536 62.3043 82.9289 60.4289C84.8043 58.5536 87.3478 57.5 90 57.5C92.6522 57.5 95.1957 58.5536 97.0711 60.4289C98.9464 62.3043 100 64.8478 100 67.5Z" fill="#0338F5"/>
</svg>
